<svg width="26" height="26" viewBox="0 0 26 26" fill="none" xmlns="http://www.w3.org/2000/svg">
<path fill-rule="evenodd" clip-rule="evenodd" d="M19 10L23.1796 7.49221C23.5407 7.27559 24 7.53565 24 7.95669V18.0433C24 18.4643 23.5407 18.7244 23.1796 18.5078L19 16V10Z" fill="#7481A6"/>
<path fill-rule="evenodd" clip-rule="evenodd" d="M3.21799 6.09202C3 6.51984 3 7.0799 3 8.2V21H17.8C18.9201 21 19.4802 21 19.908 20.782C20.2843 20.5903 20.5903 20.2843 20.782 19.908C21 19.4802 21 18.9201 21 17.8V8.2C21 7.0799 21 6.51984 20.782 6.09202C20.5903 5.71569 20.2843 5.40973 19.908 5.21799C19.4802 5 18.9201 5 17.8 5H6.2C5.0799 5 4.51984 5 4.09202 5.21799C3.71569 5.40973 3.40973 5.71569 3.21799 6.09202ZM7 9C6.44772 9 6 9.44772 6 10C6 10.5523 6.44772 11 7 11H11C11.5523 11 12 10.5523 12 10C12 9.44772 11.5523 9 11 9H7Z" fill="#7481A6"/>
</svg>
