<svg width="26" height="26" viewBox="0 0 26 26" fill="none" xmlns="http://www.w3.org/2000/svg">
<path fill-rule="evenodd" clip-rule="evenodd" d="M16.5 19L17.7591 21.2033C18.0024 21.6292 18.124 21.8421 18.1051 22.0166C18.0886 22.1689 18.0085 22.3071 17.8844 22.397C17.7422 22.5 17.497 22.5 17.0066 22.5H8.99342C8.503 22.5 8.25779 22.5 8.11559 22.397C7.99155 22.3071 7.91135 22.1689 7.89487 22.0166C7.87597 21.8421 7.99763 21.6292 8.24095 21.2033L9.5 19H16.5Z" fill="#7481A6"/>
<path fill-rule="evenodd" clip-rule="evenodd" d="M3 6C3 4.89543 3.89543 4 5 4H21C22.1046 4 23 4.89543 23 6V18C23 19.1046 22.1046 20 21 20H5C3.89543 20 3 19.1046 3 18V6ZM10 12C10 11.4477 10.4477 11 11 11C11.5523 11 12 11.4477 12 12V15C12 15.5523 11.5523 16 11 16C10.4477 16 10 15.5523 10 15V12ZM15 9.00003C14.4477 9.00003 14 9.44774 14 10V15C14 15.5523 14.4477 16 15 16C15.5523 16 16 15.5523 16 15V10C16 9.44774 15.5523 9.00003 15 9.00003Z" fill="#7481A6"/>
</svg>
