<svg width="26" height="26" viewBox="0 0 26 26" fill="none" xmlns="http://www.w3.org/2000/svg">
<path fill-rule="evenodd" clip-rule="evenodd" d="M3.21799 5.09202C3 5.51984 3 6.0799 3 7.2V22H19.8C20.9201 22 21.4802 22 21.908 21.782C22.2843 21.5903 22.5903 21.2843 22.782 20.908C23 20.4802 23 19.9201 23 18.8V9.2C23 8.0799 23 7.51984 22.782 7.09202C22.5903 6.71569 22.2843 6.40973 21.908 6.21799C21.4802 6 20.9201 6 19.8 6H16.3255C15.8363 6 15.5917 6 15.3615 5.94474C15.1575 5.89575 14.9624 5.81494 14.7834 5.70528C14.5816 5.5816 14.4086 5.40865 14.0628 5.06275L14.0627 5.06274L13.9373 4.93726C13.5914 4.59135 13.4184 4.4184 13.2166 4.29472C13.0376 4.18506 12.8425 4.10425 12.6385 4.05526C12.4083 4 12.1637 4 11.6745 4H6.2C5.0799 4 4.51984 4 4.09202 4.21799C3.71569 4.40973 3.40973 4.71569 3.21799 5.09202ZM7 8C6.44772 8 6 8.44772 6 9C6 9.55228 6.44772 10 7 10H10C10.5523 10 11 9.55228 11 9C11 8.44772 10.5523 8 10 8H7Z" fill="#7481A6"/>
</svg>
