<svg width="26" height="26" viewBox="0 0 26 26" fill="none" xmlns="http://www.w3.org/2000/svg">
<path fill-rule="evenodd" clip-rule="evenodd" d="M3 6.2C3 5.07989 3 4.51984 3.21799 4.09202C3.40973 3.71569 3.71569 3.40973 4.09202 3.21799C4.51984 3 5.0799 3 6.2 3H19.8C20.9201 3 21.4802 3 21.908 3.21799C22.2843 3.40973 22.5903 3.71569 22.782 4.09202C23 4.51984 23 5.0799 23 6.2V16.3C23 17.4201 23 17.9802 22.782 18.408C22.5903 18.7843 22.2843 19.0903 21.908 19.282C21.4802 19.5 20.9201 19.5 19.8 19.5H11.1556C9.95915 19.5 9.36094 19.5 8.77785 19.5647C7.45917 19.7109 6.17961 20.1032 5.0055 20.721C4.48634 20.9943 3.99089 21.3295 3 22V6.2ZM10 9.5C10 8.94772 10.4477 8.5 11 8.5C11.5523 8.5 12 8.94772 12 9.5V12.5C12 13.0523 11.5523 13.5 11 13.5C10.4477 13.5 10 13.0523 10 12.5V9.5ZM17 8.5C16.4477 8.5 16 8.94772 16 9.5V12.5C16 13.0523 16.4477 13.5 17 13.5C17.5523 13.5 18 13.0523 18 12.5V9.5C18 8.94772 17.5523 8.5 17 8.5Z" fill="#7481A6"/>
<path fill-rule="evenodd" clip-rule="evenodd" d="M3 19H22H11.1556C9.95915 19 9.36094 19 8.77785 19.0647C7.45917 19.2109 6.17961 19.6032 5.0055 20.221C4.48634 20.4943 3.99089 20.8295 3 21.5V19Z" fill="#7481A6"/>
</svg>
