<svg width="26" height="26" viewBox="0 0 26 26" fill="none" xmlns="http://www.w3.org/2000/svg">
<mask id="mask0_2617_691" style="mask-type:alpha" maskUnits="userSpaceOnUse" x="0" y="0" width="26" height="26">
<rect width="26" height="26" fill="#D9D9D9"/>
</mask>
<g mask="url(#mask0_2617_691)">
<path fill-rule="evenodd" clip-rule="evenodd" d="M21.2932 16.8121C21.3282 16.7388 21.3515 16.6585 21.3605 16.5732C21.4027 16.1717 21.1115 15.8121 20.71 15.7699C20.6343 15.762 20.56 15.7659 20.4891 15.7801L20.4895 15.7733C15.043 17.3502 9.44997 17.8336 6.72379 17.9808C6.3129 17.9436 5.94697 18.2435 5.90367 18.6555C5.88066 18.8744 5.95336 19.0813 6.08804 19.2345L6.0863 19.2381C7.59361 20.6925 10.6455 22.8674 14.89 22.1006C18.7713 21.1663 20.5415 18.494 21.2932 16.8121Z" fill="#7481A6"/>
<path fill-rule="evenodd" clip-rule="evenodd" d="M13.7976 3.85481C17.8316 4.2788 20.987 7.23341 21.8521 10.9754C23.9282 11.0852 25.2435 11.4608 25.3425 12.0861C25.553 13.415 20.1904 15.3687 13.3647 16.4498C6.53901 17.5309 0.835079 17.33 0.624595 16.001C0.525483 15.3753 1.66208 14.611 3.60528 13.8645C3.55554 13.2855 3.55986 12.6935 3.62286 12.0941C4.1573 7.00923 8.71269 3.32036 13.7976 3.85481ZM13.6523 5.46091C13.1616 5.38199 12.6998 5.71585 12.6209 6.2066C12.542 6.69735 12.8758 7.15916 13.3666 7.23808C14.936 7.49046 16.305 8.35021 17.2229 9.57184C17.5214 9.96923 18.0856 10.0493 18.483 9.75078C18.8804 9.45221 18.9605 8.88802 18.662 8.49062C17.4732 6.90833 15.6962 5.78959 13.6523 5.46091Z" fill="#7481A6"/>
<mask id="mask1_2617_691" style="mask-type:alpha" maskUnits="userSpaceOnUse" x="0" y="3" width="26" height="15">
<path fill-rule="evenodd" clip-rule="evenodd" d="M21.8521 10.9754C20.987 7.23342 17.8316 4.2788 13.7976 3.85481C8.71269 3.32036 4.1573 7.00923 3.62286 12.0941C3.55986 12.6935 3.55554 13.2855 3.60528 13.8645C1.66208 14.611 0.525483 15.3753 0.624595 16.001C0.835079 17.33 6.53901 17.5309 13.3647 16.4498C20.1904 15.3687 25.553 13.415 25.3425 12.0861C25.2435 11.4608 23.9282 11.0852 21.8521 10.9754Z" fill="url(#paint0_linear_2617_691)"/>
</mask>
<g mask="url(#mask1_2617_691)">
<path fill-rule="evenodd" clip-rule="evenodd" d="M21.8327 10.8962C21.8327 10.8962 21.8327 12.9256 13.9145 14.3103C4.18208 15.3638 3.61364 13.7467 3.61364 13.7467L0.912609 13.7234C0.912609 13.7234 -0.501567 15.0123 -0.501567 15.0123C-0.501567 15.0123 -0.664592 16.9811 -0.0539373 17.0453C0.556718 17.1094 1.12574 17.2206 1.91623 17.3037C2.70672 17.3868 6.10707 18.1192 6.62055 17.7468C7.13403 17.3743 12.3395 16.7266 12.3395 16.7266L21.6863 15.3638L29.3471 12.5989L26.8099 9.72081L21.8327 10.8962Z" fill="#7481A6"/>
</g>
</g>
<defs>
<linearGradient id="paint0_linear_2617_691" x1="-6.9655" y1="14.3322" x2="7.13562" y2="32.5889" gradientUnits="userSpaceOnUse">
<stop stop-color="#9DA7C5"/>
<stop offset="1" stop-color="#71799B"/>
</linearGradient>
</defs>
</svg>
